<mxfile host="65bd71144e">
    <diagram id="5DIWrdhLwUrtFaI1QlfB" name="Page-1">
        <mxGraphModel dx="1197" dy="797" grid="1" gridSize="10" guides="1" tooltips="1" connect="1" arrows="1" fold="1" page="1" pageScale="1" pageWidth="850" pageHeight="1100" math="1" shadow="0">
            <root>
                <mxCell id="0"/>
                <mxCell id="1" parent="0"/>
                <mxCell id="3" value="" style="whiteSpace=wrap;html=1;fillColor=#CCE5FF;strokeColor=#000000;gradientColor=none;strokeWidth=2;perimeterSpacing=2;rounded=0;arcSize=1;" parent="1" vertex="1">
                    <mxGeometry x="245" y="360" width="380" height="250" as="geometry"/>
                </mxCell>
                <mxCell id="5" value="" style="whiteSpace=wrap;html=1;fillColor=#CCE5FF;strokeColor=#000000;gradientColor=none;strokeWidth=2;perimeterSpacing=2;rounded=0;arcSize=1;labelBackgroundColor=none;" parent="1" vertex="1">
                    <mxGeometry x="235" y="370" width="375" height="250" as="geometry"/>
                </mxCell>
                <mxCell id="6" value="" style="whiteSpace=wrap;html=1;fillColor=#FFCCE6;strokeColor=#000000;strokeWidth=2;perimeterSpacing=2;rounded=0;arcSize=1;" parent="1" vertex="1">
                    <mxGeometry x="285" y="240" width="300" height="80" as="geometry"/>
                </mxCell>
                <mxCell id="44" value="&lt;font style=&quot;font-size: 14px;&quot;&gt;&lt;b&gt;LDPC Matrix Memory&lt;/b&gt;&lt;/font&gt;" style="text;strokeColor=none;fillColor=none;html=1;align=center;verticalAlign=middle;whiteSpace=wrap;rounded=0;" parent="1" vertex="1">
                    <mxGeometry x="285" y="210" width="150" height="30" as="geometry"/>
                </mxCell>
                <mxCell id="46" value="&lt;font style=&quot;font-size: 14px;&quot;&gt;&lt;b&gt;Processing Pool&lt;/b&gt;&lt;/font&gt;" style="text;strokeColor=none;fillColor=none;html=1;align=center;verticalAlign=middle;whiteSpace=wrap;rounded=0;" parent="1" vertex="1">
                    <mxGeometry x="490" y="330" width="150" height="30" as="geometry"/>
                </mxCell>
                <mxCell id="48" value="" style="whiteSpace=wrap;html=1;fillColor=#e1d5e7;strokeColor=#000000;strokeWidth=2;perimeterSpacing=2;rounded=0;arcSize=1;" parent="1" vertex="1">
                    <mxGeometry x="679.5" y="393.75" width="60" height="168" as="geometry"/>
                </mxCell>
                <mxCell id="49" value="&lt;font size=&quot;1&quot; style=&quot;&quot;&gt;&lt;b style=&quot;font-size: 19px;&quot;&gt;Output buffer&lt;/b&gt;&lt;/font&gt;" style="text;strokeColor=none;fillColor=none;html=1;align=center;verticalAlign=middle;whiteSpace=wrap;rounded=0;rotation=-90;" parent="1" vertex="1">
                    <mxGeometry x="634.5" y="462.75" width="150" height="30" as="geometry"/>
                </mxCell>
                <mxCell id="55" value="" style="edgeStyle=none;html=1;strokeWidth=6;strokeColor=#000000;fillColor=#000000;endWidth=17;endArrow=block;endFill=1;" parent="1" edge="1">
                    <mxGeometry relative="1" as="geometry">
                        <mxPoint x="370" y="360" as="targetPoint"/>
                        <mxPoint x="370" y="320" as="sourcePoint"/>
                    </mxGeometry>
                </mxCell>
                <mxCell id="59" value="" style="shape=table;startSize=0;container=1;collapsible=0;childLayout=tableLayout;fontSize=19;" parent="1" vertex="1">
                    <mxGeometry x="310" y="250" width="250" height="60" as="geometry"/>
                </mxCell>
                <mxCell id="60" value="" style="shape=tableRow;horizontal=0;startSize=0;swimlaneHead=0;swimlaneBody=0;top=0;left=0;bottom=0;right=0;collapsible=0;dropTarget=0;fillColor=none;points=[[0,0.5],[1,0.5]];portConstraint=eastwest;fontSize=19;" parent="59" vertex="1">
                    <mxGeometry width="250" height="12" as="geometry"/>
                </mxCell>
                <mxCell id="61" value="" style="shape=partialRectangle;html=1;whiteSpace=wrap;connectable=0;overflow=hidden;fillColor=none;top=0;left=0;bottom=0;right=0;pointerEvents=1;fontSize=19;" parent="60" vertex="1">
                    <mxGeometry width="125" height="12" as="geometry">
                        <mxRectangle width="125" height="12" as="alternateBounds"/>
                    </mxGeometry>
                </mxCell>
                <mxCell id="62" value="" style="shape=partialRectangle;html=1;whiteSpace=wrap;connectable=0;overflow=hidden;fillColor=none;top=0;left=0;bottom=0;right=0;pointerEvents=1;fontSize=19;" parent="60" vertex="1">
                    <mxGeometry x="125" width="125" height="12" as="geometry">
                        <mxRectangle width="125" height="12" as="alternateBounds"/>
                    </mxGeometry>
                </mxCell>
                <mxCell id="63" value="" style="shape=tableRow;horizontal=0;startSize=0;swimlaneHead=0;swimlaneBody=0;top=0;left=0;bottom=0;right=0;collapsible=0;dropTarget=0;fillColor=none;points=[[0,0.5],[1,0.5]];portConstraint=eastwest;fontSize=19;" parent="59" vertex="1">
                    <mxGeometry y="12" width="250" height="12" as="geometry"/>
                </mxCell>
                <mxCell id="64" value="" style="shape=partialRectangle;html=1;whiteSpace=wrap;connectable=0;overflow=hidden;fillColor=none;top=0;left=0;bottom=0;right=0;pointerEvents=1;fontSize=19;" parent="63" vertex="1">
                    <mxGeometry width="125" height="12" as="geometry">
                        <mxRectangle width="125" height="12" as="alternateBounds"/>
                    </mxGeometry>
                </mxCell>
                <mxCell id="65" value="" style="shape=partialRectangle;html=1;whiteSpace=wrap;connectable=0;overflow=hidden;fillColor=none;top=0;left=0;bottom=0;right=0;pointerEvents=1;fontSize=19;" parent="63" vertex="1">
                    <mxGeometry x="125" width="125" height="12" as="geometry">
                        <mxRectangle width="125" height="12" as="alternateBounds"/>
                    </mxGeometry>
                </mxCell>
                <mxCell id="66" value="" style="shape=tableRow;horizontal=0;startSize=0;swimlaneHead=0;swimlaneBody=0;top=0;left=0;bottom=0;right=0;collapsible=0;dropTarget=0;fillColor=none;points=[[0,0.5],[1,0.5]];portConstraint=eastwest;fontSize=19;" parent="59" vertex="1">
                    <mxGeometry y="24" width="250" height="12" as="geometry"/>
                </mxCell>
                <mxCell id="67" value="" style="shape=partialRectangle;html=1;whiteSpace=wrap;connectable=0;overflow=hidden;fillColor=none;top=0;left=0;bottom=0;right=0;pointerEvents=1;fontSize=19;" parent="66" vertex="1">
                    <mxGeometry width="125" height="12" as="geometry">
                        <mxRectangle width="125" height="12" as="alternateBounds"/>
                    </mxGeometry>
                </mxCell>
                <mxCell id="68" value="" style="shape=partialRectangle;html=1;whiteSpace=wrap;connectable=0;overflow=hidden;fillColor=none;top=0;left=0;bottom=0;right=0;pointerEvents=1;fontSize=19;" parent="66" vertex="1">
                    <mxGeometry x="125" width="125" height="12" as="geometry">
                        <mxRectangle width="125" height="12" as="alternateBounds"/>
                    </mxGeometry>
                </mxCell>
                <mxCell id="69" value="" style="shape=tableRow;horizontal=0;startSize=0;swimlaneHead=0;swimlaneBody=0;top=0;left=0;bottom=0;right=0;collapsible=0;dropTarget=0;fillColor=none;points=[[0,0.5],[1,0.5]];portConstraint=eastwest;fontSize=19;" parent="59" vertex="1">
                    <mxGeometry y="36" width="250" height="12" as="geometry"/>
                </mxCell>
                <mxCell id="70" value="" style="shape=partialRectangle;html=1;whiteSpace=wrap;connectable=0;overflow=hidden;fillColor=none;top=0;left=0;bottom=0;right=0;pointerEvents=1;fontSize=19;" parent="69" vertex="1">
                    <mxGeometry width="125" height="12" as="geometry">
                        <mxRectangle width="125" height="12" as="alternateBounds"/>
                    </mxGeometry>
                </mxCell>
                <mxCell id="71" value="" style="shape=partialRectangle;html=1;whiteSpace=wrap;connectable=0;overflow=hidden;fillColor=none;top=0;left=0;bottom=0;right=0;pointerEvents=1;fontSize=19;" parent="69" vertex="1">
                    <mxGeometry x="125" width="125" height="12" as="geometry">
                        <mxRectangle width="125" height="12" as="alternateBounds"/>
                    </mxGeometry>
                </mxCell>
                <mxCell id="72" value="" style="shape=tableRow;horizontal=0;startSize=0;swimlaneHead=0;swimlaneBody=0;top=0;left=0;bottom=0;right=0;collapsible=0;dropTarget=0;fillColor=none;points=[[0,0.5],[1,0.5]];portConstraint=eastwest;fontSize=19;" parent="59" vertex="1">
                    <mxGeometry y="48" width="250" height="12" as="geometry"/>
                </mxCell>
                <mxCell id="73" value="" style="shape=partialRectangle;html=1;whiteSpace=wrap;connectable=0;overflow=hidden;fillColor=none;top=0;left=0;bottom=0;right=0;pointerEvents=1;fontSize=19;" parent="72" vertex="1">
                    <mxGeometry width="125" height="12" as="geometry">
                        <mxRectangle width="125" height="12" as="alternateBounds"/>
                    </mxGeometry>
                </mxCell>
                <mxCell id="74" value="" style="shape=partialRectangle;html=1;whiteSpace=wrap;connectable=0;overflow=hidden;fillColor=none;top=0;left=0;bottom=0;right=0;pointerEvents=1;fontSize=19;" parent="72" vertex="1">
                    <mxGeometry x="125" width="125" height="12" as="geometry">
                        <mxRectangle width="125" height="12" as="alternateBounds"/>
                    </mxGeometry>
                </mxCell>
                <mxCell id="87" value="" style="edgeStyle=none;orthogonalLoop=1;jettySize=auto;html=1;rounded=0;strokeWidth=2;fontSize=17;fontColor=#000000;startArrow=none;startFill=0;endArrow=block;endFill=1;sourcePerimeterSpacing=8;targetPerimeterSpacing=8;fillColor=#000000;entryX=0;entryY=0.441;entryDx=0;entryDy=0;entryPerimeter=0;" parent="1" target="5" edge="1">
                    <mxGeometry width="140" relative="1" as="geometry">
                        <mxPoint x="190" y="480" as="sourcePoint"/>
                        <mxPoint x="225" y="477.5" as="targetPoint"/>
                        <Array as="points"/>
                    </mxGeometry>
                </mxCell>
                <mxCell id="89" value="&lt;span style=&quot;font-size: 20px;&quot;&gt;&lt;b&gt;&lt;i&gt;y&lt;/i&gt;&lt;/b&gt;&lt;/span&gt;" style="text;strokeColor=none;fillColor=none;html=1;align=center;verticalAlign=middle;whiteSpace=wrap;rounded=0;strokeWidth=2;fontSize=17;fontColor=#000000;" parent="1" vertex="1">
                    <mxGeometry x="200" y="488.25" width="15" height="17" as="geometry"/>
                </mxCell>
                <mxCell id="90" value="&lt;b style=&quot;&quot;&gt;&lt;font style=&quot;font-size: 18px;&quot;&gt;H&lt;/font&gt;&lt;/b&gt;" style="text;strokeColor=none;fillColor=none;html=1;align=center;verticalAlign=middle;whiteSpace=wrap;rounded=0;strokeWidth=2;fontSize=17;fontColor=#000000;" parent="1" vertex="1">
                    <mxGeometry x="365" y="320" width="60" height="30" as="geometry"/>
                </mxCell>
                <mxCell id="111" value="" style="whiteSpace=wrap;html=1;fillColor=#e1d5e7;strokeColor=#000000;strokeWidth=2;perimeterSpacing=2;rounded=0;arcSize=1;" parent="1" vertex="1">
                    <mxGeometry x="110" y="370" width="80" height="250" as="geometry"/>
                </mxCell>
                <mxCell id="128" value="" style="edgeStyle=none;html=1;strokeWidth=3;strokeColor=#000000;fillColor=#000000;endWidth=17;endArrow=block;endFill=1;" parent="1" edge="1">
                    <mxGeometry relative="1" as="geometry">
                        <mxPoint x="110" y="494.71" as="targetPoint"/>
                        <mxPoint x="61" y="494.71" as="sourcePoint"/>
                    </mxGeometry>
                </mxCell>
                <mxCell id="129" value="&lt;div style=&quot;&quot;&gt;&lt;b style=&quot;font-size: 14px; background-color: initial;&quot;&gt;Received Codeword buffer&lt;/b&gt;&lt;/div&gt;" style="text;strokeColor=none;fillColor=none;html=1;align=left;verticalAlign=middle;whiteSpace=wrap;rounded=0;rotation=-90;" parent="1" vertex="1">
                    <mxGeometry x="25" y="476.25" width="190" height="27.5" as="geometry"/>
                </mxCell>
                <mxCell id="130" value="&lt;span style=&quot;font-size: 20px;&quot;&gt;$$y$$&lt;/span&gt;" style="text;strokeColor=none;fillColor=none;html=1;align=center;verticalAlign=middle;whiteSpace=wrap;rounded=0;strokeWidth=2;fontSize=17;fontColor=#000000;" parent="1" vertex="1">
                    <mxGeometry x="70" y="462.75" width="20" height="30" as="geometry"/>
                </mxCell>
                <mxCell id="132" value="" style="edgeStyle=none;html=1;strokeWidth=6;strokeColor=#000000;fillColor=#000000;endWidth=17;endArrow=block;endFill=1;" parent="1" edge="1">
                    <mxGeometry relative="1" as="geometry">
                        <mxPoint x="490" y="359.99999999999994" as="targetPoint"/>
                        <mxPoint x="490" y="320" as="sourcePoint"/>
                    </mxGeometry>
                </mxCell>
                <mxCell id="138" value="" style="whiteSpace=wrap;html=1;fillColor=#FFFFFF;strokeColor=#000000;strokeWidth=2;perimeterSpacing=2;rounded=0;arcSize=1;direction=south;" parent="1" vertex="1">
                    <mxGeometry x="346.25" y="740" width="152.5" height="55" as="geometry"/>
                </mxCell>
                <mxCell id="150" value="" style="whiteSpace=wrap;html=1;fillColor=#e1d5e7;strokeColor=#000000;strokeWidth=2;perimeterSpacing=2;rounded=0;arcSize=1;rotation=90;" parent="1" vertex="1">
                    <mxGeometry x="674.25" y="545.25" width="30.5" height="99" as="geometry"/>
                </mxCell>
                <mxCell id="151" value="&lt;span style=&quot;caret-color: rgb(0, 0, 0); text-align: start;&quot;&gt;&lt;b style=&quot;&quot;&gt;&lt;font style=&quot;font-size: 20px;&quot;&gt;x̂&lt;/font&gt;&lt;font style=&quot;font-size: 18px;&quot;&gt;&amp;nbsp;b&lt;/font&gt;&lt;/b&gt;&lt;/span&gt;&lt;font size=&quot;1&quot; style=&quot;&quot;&gt;&lt;b style=&quot;font-size: 17px;&quot;&gt;uffer&lt;/b&gt;&lt;/font&gt;" style="text;strokeColor=none;fillColor=none;html=1;align=center;verticalAlign=middle;whiteSpace=wrap;rounded=0;rotation=0;" parent="1" vertex="1">
                    <mxGeometry x="651.75" y="579.75" width="75.5" height="30" as="geometry"/>
                </mxCell>
                <mxCell id="161" value="&lt;b style=&quot;border-color: var(--border-color); text-align: start; caret-color: rgb(0, 0, 0);&quot;&gt;&lt;font style=&quot;border-color: var(--border-color); font-size: 20px;&quot;&gt;x̂&lt;/font&gt;&lt;/b&gt;" style="text;strokeColor=none;fillColor=none;html=1;align=center;verticalAlign=middle;whiteSpace=wrap;rounded=0;strokeWidth=2;fontSize=17;fontColor=#000000;" parent="1" vertex="1">
                    <mxGeometry x="610" y="451.25" width="60" height="30" as="geometry"/>
                </mxCell>
                <mxCell id="173" value="" style="whiteSpace=wrap;html=1;fillColor=#FFFFFF;strokeColor=#000000;strokeWidth=2;perimeterSpacing=2;rounded=0;arcSize=1;direction=south;" parent="1" vertex="1">
                    <mxGeometry x="131.25" y="740" width="152.5" height="55" as="geometry"/>
                </mxCell>
                <mxCell id="197" value="" style="edgeStyle=none;html=1;strokeWidth=3;strokeColor=#000000;fillColor=#000000;endWidth=17;endArrow=block;endFill=1;entryX=0.108;entryY=-0.032;entryDx=0;entryDy=0;entryPerimeter=0;" parent="1" target="151" edge="1">
                    <mxGeometry relative="1" as="geometry">
                        <mxPoint x="668" y="545" as="targetPoint"/>
                        <mxPoint x="616" y="490" as="sourcePoint"/>
                        <Array as="points">
                            <mxPoint x="616" y="529"/>
                            <mxPoint x="660" y="530"/>
                        </Array>
                    </mxGeometry>
                </mxCell>
                <mxCell id="198" value="" style="edgeStyle=none;html=1;strokeWidth=3;strokeColor=#000000;fillColor=#000000;endWidth=17;endArrow=block;endFill=1;" parent="1" edge="1">
                    <mxGeometry relative="1" as="geometry">
                        <mxPoint x="345" y="577" as="targetPoint"/>
                        <mxPoint x="690" y="609" as="sourcePoint"/>
                        <Array as="points">
                            <mxPoint x="690" y="630"/>
                            <mxPoint x="345" y="631"/>
                        </Array>
                    </mxGeometry>
                </mxCell>
                <mxCell id="203" value="" style="shape=table;startSize=0;container=1;collapsible=0;childLayout=tableLayout;strokeColor=#000000;fontFamily=Helvetica;fontSize=20;fillColor=default;" parent="1" vertex="1">
                    <mxGeometry x="132" y="389" width="45" height="210" as="geometry"/>
                </mxCell>
                <mxCell id="204" value="" style="shape=tableRow;horizontal=0;startSize=0;swimlaneHead=0;swimlaneBody=0;top=0;left=0;bottom=0;right=0;collapsible=0;dropTarget=0;fillColor=none;points=[[0,0.5],[1,0.5]];portConstraint=eastwest;dashed=1;strokeColor=#FF0000;fontFamily=Helvetica;fontSize=20;" parent="203" vertex="1">
                    <mxGeometry width="45" height="26" as="geometry"/>
                </mxCell>
                <mxCell id="205" value="" style="shape=partialRectangle;html=1;whiteSpace=wrap;connectable=0;overflow=hidden;fillColor=none;top=0;left=0;bottom=0;right=0;pointerEvents=1;dashed=1;strokeColor=#FF0000;fontFamily=Helvetica;fontSize=20;" parent="204" vertex="1">
                    <mxGeometry width="45" height="26" as="geometry">
                        <mxRectangle width="45" height="26" as="alternateBounds"/>
                    </mxGeometry>
                </mxCell>
                <mxCell id="206" value="" style="shape=tableRow;horizontal=0;startSize=0;swimlaneHead=0;swimlaneBody=0;top=0;left=0;bottom=0;right=0;collapsible=0;dropTarget=0;fillColor=none;points=[[0,0.5],[1,0.5]];portConstraint=eastwest;dashed=1;strokeColor=#FF0000;fontFamily=Helvetica;fontSize=20;" parent="203" vertex="1">
                    <mxGeometry y="26" width="45" height="27" as="geometry"/>
                </mxCell>
                <mxCell id="207" value="" style="shape=partialRectangle;html=1;whiteSpace=wrap;connectable=0;overflow=hidden;fillColor=none;top=0;left=0;bottom=0;right=0;pointerEvents=1;dashed=1;strokeColor=#FF0000;fontFamily=Helvetica;fontSize=20;" parent="206" vertex="1">
                    <mxGeometry width="45" height="27" as="geometry">
                        <mxRectangle width="45" height="27" as="alternateBounds"/>
                    </mxGeometry>
                </mxCell>
                <mxCell id="208" value="" style="shape=tableRow;horizontal=0;startSize=0;swimlaneHead=0;swimlaneBody=0;top=0;left=0;bottom=0;right=0;collapsible=0;dropTarget=0;fillColor=none;points=[[0,0.5],[1,0.5]];portConstraint=eastwest;dashed=1;strokeColor=#FF0000;fontFamily=Helvetica;fontSize=20;" parent="203" vertex="1">
                    <mxGeometry y="53" width="45" height="26" as="geometry"/>
                </mxCell>
                <mxCell id="209" value="" style="shape=partialRectangle;html=1;whiteSpace=wrap;connectable=0;overflow=hidden;fillColor=none;top=0;left=0;bottom=0;right=0;pointerEvents=1;dashed=1;strokeColor=#FF0000;fontFamily=Helvetica;fontSize=20;" parent="208" vertex="1">
                    <mxGeometry width="45" height="26" as="geometry">
                        <mxRectangle width="45" height="26" as="alternateBounds"/>
                    </mxGeometry>
                </mxCell>
                <mxCell id="210" value="" style="shape=tableRow;horizontal=0;startSize=0;swimlaneHead=0;swimlaneBody=0;top=0;left=0;bottom=0;right=0;collapsible=0;dropTarget=0;fillColor=none;points=[[0,0.5],[1,0.5]];portConstraint=eastwest;dashed=1;strokeColor=#FF0000;fontFamily=Helvetica;fontSize=20;" parent="203" vertex="1">
                    <mxGeometry y="79" width="45" height="26" as="geometry"/>
                </mxCell>
                <mxCell id="211" value="" style="shape=partialRectangle;html=1;whiteSpace=wrap;connectable=0;overflow=hidden;fillColor=none;top=0;left=0;bottom=0;right=0;pointerEvents=1;dashed=1;strokeColor=#FF0000;fontFamily=Helvetica;fontSize=20;" parent="210" vertex="1">
                    <mxGeometry width="45" height="26" as="geometry">
                        <mxRectangle width="45" height="26" as="alternateBounds"/>
                    </mxGeometry>
                </mxCell>
                <mxCell id="212" value="" style="shape=tableRow;horizontal=0;startSize=0;swimlaneHead=0;swimlaneBody=0;top=0;left=0;bottom=0;right=0;collapsible=0;dropTarget=0;fillColor=none;points=[[0,0.5],[1,0.5]];portConstraint=eastwest;dashed=1;strokeColor=#FF0000;fontFamily=Helvetica;fontSize=20;" parent="203" vertex="1">
                    <mxGeometry y="105" width="45" height="26" as="geometry"/>
                </mxCell>
                <mxCell id="213" value="" style="shape=partialRectangle;html=1;whiteSpace=wrap;connectable=0;overflow=hidden;fillColor=none;top=0;left=0;bottom=0;right=0;pointerEvents=1;dashed=1;strokeColor=#FF0000;fontFamily=Helvetica;fontSize=20;" parent="212" vertex="1">
                    <mxGeometry width="45" height="26" as="geometry">
                        <mxRectangle width="45" height="26" as="alternateBounds"/>
                    </mxGeometry>
                </mxCell>
                <mxCell id="214" value="" style="shape=tableRow;horizontal=0;startSize=0;swimlaneHead=0;swimlaneBody=0;top=0;left=0;bottom=0;right=0;collapsible=0;dropTarget=0;fillColor=none;points=[[0,0.5],[1,0.5]];portConstraint=eastwest;dashed=1;strokeColor=#FF0000;fontFamily=Helvetica;fontSize=20;" parent="203" vertex="1">
                    <mxGeometry y="131" width="45" height="27" as="geometry"/>
                </mxCell>
                <mxCell id="215" value="" style="shape=partialRectangle;html=1;whiteSpace=wrap;connectable=0;overflow=hidden;fillColor=none;top=0;left=0;bottom=0;right=0;pointerEvents=1;dashed=1;strokeColor=#FF0000;fontFamily=Helvetica;fontSize=20;" parent="214" vertex="1">
                    <mxGeometry width="45" height="27" as="geometry">
                        <mxRectangle width="45" height="27" as="alternateBounds"/>
                    </mxGeometry>
                </mxCell>
                <mxCell id="216" value="" style="shape=tableRow;horizontal=0;startSize=0;swimlaneHead=0;swimlaneBody=0;top=0;left=0;bottom=0;right=0;collapsible=0;dropTarget=0;fillColor=none;points=[[0,0.5],[1,0.5]];portConstraint=eastwest;dashed=1;strokeColor=#FF0000;fontFamily=Helvetica;fontSize=20;" parent="203" vertex="1">
                    <mxGeometry y="158" width="45" height="26" as="geometry"/>
                </mxCell>
                <mxCell id="217" value="" style="shape=partialRectangle;html=1;whiteSpace=wrap;connectable=0;overflow=hidden;fillColor=none;top=0;left=0;bottom=0;right=0;pointerEvents=1;dashed=1;strokeColor=#FF0000;fontFamily=Helvetica;fontSize=20;" parent="216" vertex="1">
                    <mxGeometry width="45" height="26" as="geometry">
                        <mxRectangle width="45" height="26" as="alternateBounds"/>
                    </mxGeometry>
                </mxCell>
                <mxCell id="218" value="" style="shape=tableRow;horizontal=0;startSize=0;swimlaneHead=0;swimlaneBody=0;top=0;left=0;bottom=0;right=0;collapsible=0;dropTarget=0;fillColor=none;points=[[0,0.5],[1,0.5]];portConstraint=eastwest;dashed=1;strokeColor=#FF0000;fontFamily=Helvetica;fontSize=20;" parent="203" vertex="1">
                    <mxGeometry y="184" width="45" height="26" as="geometry"/>
                </mxCell>
                <mxCell id="219" value="" style="shape=partialRectangle;html=1;whiteSpace=wrap;connectable=0;overflow=hidden;fillColor=none;top=0;left=0;bottom=0;right=0;pointerEvents=1;dashed=1;strokeColor=#FF0000;fontFamily=Helvetica;fontSize=20;" parent="218" vertex="1">
                    <mxGeometry width="45" height="26" as="geometry">
                        <mxRectangle width="45" height="26" as="alternateBounds"/>
                    </mxGeometry>
                </mxCell>
                <mxCell id="222" value="" style="edgeStyle=none;orthogonalLoop=1;jettySize=auto;html=1;rounded=0;strokeWidth=2;fontSize=17;fontColor=#000000;startArrow=none;startFill=0;endArrow=block;endFill=1;sourcePerimeterSpacing=8;targetPerimeterSpacing=8;fillColor=#000000;entryX=0;entryY=0.441;entryDx=0;entryDy=0;entryPerimeter=0;" parent="1" edge="1">
                    <mxGeometry width="140" relative="1" as="geometry">
                        <mxPoint x="191" y="520" as="sourcePoint"/>
                        <mxPoint x="235" y="520.0139999999999" as="targetPoint"/>
                        <Array as="points"/>
                    </mxGeometry>
                </mxCell>
                <mxCell id="224" value="" style="edgeStyle=none;orthogonalLoop=1;jettySize=auto;html=1;rounded=0;strokeWidth=2;fontSize=17;fontColor=#000000;startArrow=none;startFill=0;endArrow=block;endFill=1;sourcePerimeterSpacing=8;targetPerimeterSpacing=8;fillColor=#000000;entryX=0;entryY=0.441;entryDx=0;entryDy=0;entryPerimeter=0;" parent="1" edge="1">
                    <mxGeometry width="140" relative="1" as="geometry">
                        <mxPoint x="190.99999999999994" y="559" as="sourcePoint"/>
                        <mxPoint x="235" y="559.0139999999999" as="targetPoint"/>
                        <Array as="points"/>
                    </mxGeometry>
                </mxCell>
                <mxCell id="225" value="" style="edgeStyle=none;orthogonalLoop=1;jettySize=auto;html=1;rounded=0;strokeWidth=2;fontSize=17;fontColor=#000000;startArrow=none;startFill=0;endArrow=block;endFill=1;sourcePerimeterSpacing=8;targetPerimeterSpacing=8;fillColor=#000000;entryX=0;entryY=0.441;entryDx=0;entryDy=0;entryPerimeter=0;" parent="1" edge="1">
                    <mxGeometry width="140" relative="1" as="geometry">
                        <mxPoint x="190.99999999999994" y="400" as="sourcePoint"/>
                        <mxPoint x="235" y="400.0139999999999" as="targetPoint"/>
                        <Array as="points"/>
                    </mxGeometry>
                </mxCell>
                <mxCell id="226" value="" style="edgeStyle=none;orthogonalLoop=1;jettySize=auto;html=1;rounded=0;strokeWidth=2;fontSize=17;fontColor=#000000;startArrow=none;startFill=0;endArrow=block;endFill=1;sourcePerimeterSpacing=8;targetPerimeterSpacing=8;fillColor=#000000;entryX=0;entryY=0.441;entryDx=0;entryDy=0;entryPerimeter=0;" parent="1" edge="1">
                    <mxGeometry width="140" relative="1" as="geometry">
                        <mxPoint x="190.99999999999994" y="440" as="sourcePoint"/>
                        <mxPoint x="235" y="440.0139999999999" as="targetPoint"/>
                        <Array as="points"/>
                    </mxGeometry>
                </mxCell>
                <mxCell id="227" value="" style="edgeStyle=none;orthogonalLoop=1;jettySize=auto;html=1;rounded=0;strokeWidth=2;fontSize=17;fontColor=#000000;startArrow=none;startFill=0;endArrow=block;endFill=1;sourcePerimeterSpacing=8;targetPerimeterSpacing=8;fillColor=#000000;entryX=0;entryY=0.441;entryDx=0;entryDy=0;entryPerimeter=0;" parent="1" edge="1">
                    <mxGeometry width="140" relative="1" as="geometry">
                        <mxPoint x="190.99999999999994" y="599" as="sourcePoint"/>
                        <mxPoint x="235" y="599.0139999999999" as="targetPoint"/>
                        <Array as="points"/>
                    </mxGeometry>
                </mxCell>
                <mxCell id="231" value="" style="edgeStyle=none;html=1;strokeWidth=3;strokeColor=#000000;fillColor=#000000;endWidth=17;endArrow=block;endFill=1;" parent="1" edge="1">
                    <mxGeometry relative="1" as="geometry">
                        <mxPoint x="785" y="480" as="targetPoint"/>
                        <mxPoint x="740" y="480" as="sourcePoint"/>
                    </mxGeometry>
                </mxCell>
                <mxCell id="244" value="&lt;font size=&quot;1&quot; style=&quot;&quot;&gt;&lt;b style=&quot;font-size: 14px;&quot;&gt;1280&lt;/b&gt;&lt;/font&gt;" style="text;html=1;align=center;verticalAlign=middle;resizable=0;points=[];autosize=1;strokeColor=none;fillColor=none;fontSize=18;fontFamily=Helvetica;fontColor=#000000;" parent="1" vertex="1">
                    <mxGeometry x="152.66" y="610" width="50" height="40" as="geometry"/>
                </mxCell>
                <mxCell id="246" value="" style="edgeStyle=none;html=1;strokeWidth=3;strokeColor=#000000;fillColor=#000000;endWidth=17;endArrow=block;endFill=1;" parent="1" edge="1">
                    <mxGeometry relative="1" as="geometry">
                        <mxPoint x="740" y="595" as="targetPoint"/>
                        <mxPoint x="268" y="604" as="sourcePoint"/>
                        <Array as="points">
                            <mxPoint x="268" y="649"/>
                            <mxPoint x="770" y="649"/>
                            <mxPoint x="770" y="595"/>
                        </Array>
                    </mxGeometry>
                </mxCell>
                <mxCell id="247" value="&lt;span style=&quot;font-size: 20px;&quot;&gt;&lt;b&gt;&lt;i&gt;c&lt;/i&gt;&lt;/b&gt;&lt;/span&gt;" style="text;strokeColor=none;fillColor=none;html=1;align=center;verticalAlign=middle;whiteSpace=wrap;rounded=0;strokeWidth=2;fontSize=17;fontColor=#000000;" parent="1" vertex="1">
                    <mxGeometry x="270.15999999999997" y="627.25" width="15" height="17" as="geometry"/>
                </mxCell>
                <mxCell id="251" value="&lt;span style=&quot;border-color: var(--border-color); text-align: start; caret-color: rgb(0, 0, 0);&quot;&gt;&lt;font style=&quot;border-color: var(--border-color); font-size: 20px;&quot;&gt;$$\hat{x}$$&lt;br&gt;&lt;/font&gt;&lt;/span&gt;" style="text;strokeColor=none;fillColor=none;html=1;align=center;verticalAlign=middle;whiteSpace=wrap;rounded=0;strokeWidth=2;fontSize=17;fontColor=#000000;" parent="1" vertex="1">
                    <mxGeometry x="727.25" y="455.5" width="62.75" height="26.25" as="geometry"/>
                </mxCell>
                <mxCell id="252" value="&lt;font size=&quot;1&quot; style=&quot;&quot;&gt;&lt;b style=&quot;font-size: 14px;&quot;&gt;1280&lt;/b&gt;&lt;/font&gt;" style="text;html=1;align=center;verticalAlign=middle;resizable=0;points=[];autosize=1;strokeColor=none;fillColor=none;fontSize=18;fontFamily=Helvetica;fontColor=#000000;" parent="1" vertex="1">
                    <mxGeometry x="704.75" y="550" width="50" height="40" as="geometry"/>
                </mxCell>
                <mxCell id="253" value="" style="edgeStyle=none;orthogonalLoop=1;jettySize=auto;html=1;rounded=0;strokeWidth=5;fontSize=17;fontColor=#000000;startArrow=none;startFill=0;endArrow=block;endFill=1;sourcePerimeterSpacing=8;targetPerimeterSpacing=8;fillColor=#000000;" parent="1" edge="1">
                    <mxGeometry width="140" relative="1" as="geometry">
                        <mxPoint x="610" y="445" as="sourcePoint"/>
                        <mxPoint x="677" y="445" as="targetPoint"/>
                        <Array as="points"/>
                    </mxGeometry>
                </mxCell>
                <mxCell id="254" value="" style="edgeStyle=none;orthogonalLoop=1;jettySize=auto;html=1;rounded=0;strokeWidth=5;fontSize=17;fontColor=#000000;startArrow=none;startFill=0;endArrow=block;endFill=1;sourcePerimeterSpacing=8;targetPerimeterSpacing=8;fillColor=#000000;" parent="1" edge="1">
                    <mxGeometry width="140" relative="1" as="geometry">
                        <mxPoint x="610" y="490" as="sourcePoint"/>
                        <mxPoint x="676" y="489.74" as="targetPoint"/>
                        <Array as="points"/>
                    </mxGeometry>
                </mxCell>
                <mxCell id="255" value="" style="edgeStyle=none;orthogonalLoop=1;jettySize=auto;html=1;rounded=0;strokeWidth=5;fontSize=17;fontColor=#000000;startArrow=none;startFill=0;endArrow=block;endFill=1;sourcePerimeterSpacing=8;targetPerimeterSpacing=8;fillColor=#000000;" parent="1" edge="1">
                    <mxGeometry width="140" relative="1" as="geometry">
                        <mxPoint x="610" y="400" as="sourcePoint"/>
                        <mxPoint x="676" y="400" as="targetPoint"/>
                        <Array as="points"/>
                    </mxGeometry>
                </mxCell>
            </root>
        </mxGraphModel>
    </diagram>
</mxfile>